<svg xmlns="http://www.w3.org/2000/svg" width="110" height="110"><g><path fill="none" stroke="#007449" stroke-miterlimit="10" d="M-529.8 5743l49.54 49.54M-529.8 5792.54l49.54-49.54"/><path fill="#00004D" stroke="#FF9100" stroke-width="2" stroke-miterlimit="10" d="M3263.76 1449.48h-4v17l4-3 4 3v-17z"/><g fill="#666"><path d="M47.63 31.48v25.2c-1.14.42-1.96 1.5-1.96 2.8 0 1.66 1.34 3 3 3s3-1.34 3-3c0-1.32-.85-2.43-2.04-2.83V31.48h-2zM74.46 78.4c-5.83 7.92-15.2 13.08-25.8 13.08-17.63 0-32-14.36-32-32s14.37-32 32-32c10.33 0 19.5 4.9 25.37 12.5h2.48c-5.97-8.5-15.74-14.14-26.83-14.47v-6.98h3.5v-2h-9v2h3.5v7c-18.28.52-33 15.55-33 33.96 0 18.75 15.25 34 34 34 11.76 0 22.13-6 28.24-15.1h-2.44z"/></g><path fill="#040430" d="M78.47 74.9v-9.07h-16.3V51.77h16.3v-8.2l18.4 15.2-18.4 16.13zm-14.3-11.07h16.3v6.66l13.3-11.68-13.3-11v5.95h-16.3v10.06z"/></g></svg>