<svg xmlns="http://www.w3.org/2000/svg" width="110" height="110"><g><g fill="#666"><path d="M28.5 21v68h53V21h-53zm51 66h-49V23h49v64zM40 43.5h22v2H40zM40 33h22v2H40zM40 64.5h22v2H40zM40 54h22v2H40zM40 75h22v2H40z"/></g><path fill="#040430" d="M68.06 36.5l-2.94-2.77 1.38-1.46 1.28 1.22L70 30.4l1.62 1.2zM68.06 47l-2.94-2.77 1.38-1.46L67.78 44 70 40.9l1.62 1.2zM68.06 57.5l-2.94-2.77 1.38-1.46 1.28 1.22L70 51.4l1.62 1.2zM68.06 68l-2.94-2.77 1.38-1.46L67.78 65 70 61.9l1.62 1.2zM68.06 78.5l-2.94-2.77 1.38-1.46 1.28 1.22L70 72.4l1.62 1.2z"/></g></svg>