<svg xmlns="http://www.w3.org/2000/svg" width="110" height="110"><g><path fill="none" stroke="#007449" stroke-miterlimit="10" d="M-529.8 5592.54l49.54 49.54M-529.8 5642.08l49.54-49.54"/><path fill="#00004D" stroke="#FF9100" stroke-width="2" stroke-miterlimit="10" d="M3263.76 1299.03h-4v17l4-3 4 3v-17z"/><g fill="#040430"><path d="M39 18.75v11h32v-11H39zm30 9H41v-7h28v7zM47.5 23.25h15v2h-15z"/></g><g fill="#666"><path d="M73 23.25v2h6.5v64h-49v-64H37v-2h-8.5v68h53v-68zM40 45.75h30v2H40zM40 35.25h30v2H40zM40 66.75h30v2H40zM40 56.25h30v2H40zM40 77.25h30v2H40z"/></g></g></svg>