<svg xmlns="http://www.w3.org/2000/svg" width="110" height="110"><g><path fill="none" stroke="#007449" stroke-miterlimit="10" d="M-529.8 5427.25l49.54 49.54M-529.8 5476.8l49.54-49.55"/><path fill="#00004D" stroke="#FF9100" stroke-width="2" stroke-miterlimit="10" d="M3263.76 1133.74h-4v17l4-3 4 3v-17z"/><path fill="none" d="M33.06 39.06L28.7 46.2l4.42 2.5 5.7-9.64zM44.9 55.3l2.67 1.5v-6.66zM30.97 56.26l-.03.06-13.3 28.2c-.2.43-.25.88-.12 1.3.13.44.43.8.82 1 .8.4 1.85.08 2.27-.72l13.75-29.16 2.83 1.42L43.5 69.8v15.53c0 .92.76 1.67 1.7 1.67s1.66-.75 1.66-1.67v-15.9c0-.32-.06-.64-.22-.9l-5.7-9.9 1.3-2.52-8.4-4.7-2.87 4.86zM57.07 31.7v1l.07-1c1.16-.02 2.25-.5 3.06-1.32.8-.84 1.23-1.94 1.22-3.1-.05-2.36-2-4.28-4.36-4.28-2.47.04-4.4 2.03-4.35 4.43.05 2.36 2 4.27 4.37 4.27zM52.92 38.06c0-2.33-1.83-4-4.35-4H31.2c-.4 0-1.37.08-1.8.9l-8 12.93c-.18.32-.22.78-.08 1.2.13.43.42.78.82 1 .8.4 1.85.07 2.26-.72l1.5-2.44-1-.57.97-1.74 1.07.6 5-8.17h10.38l-7.46 12.6 8.3 4.67 6.4-12.45v16.04l3 1.68c.22-.3.35-.64.35-1.03v-20.5z"/><path fill="#666" d="M47.57 56.8l-2.66-1.5-.9 1.8 3.62 2.02c-.02-.18-.05-.36-.05-.55V56.8z"/><path fill="none" d="M72.2 72.9l-5.84-3.27-11.3 16.46c-.27.4-.3.64-.25.7s.26.2.74.2h36.02c.52 0 .7-.15.72-.2.02-.02.04-.26-.26-.68l-17.77-25.4c-.27-.4-.58-.6-.9-.6-.3 0-.62.22-.88.6l-4.98 7.26 5.68 3.2-.98 1.73z"/><path fill="#040430" d="M93.66 84.97L75.9 59.57c-.65-.92-1.58-1.44-2.54-1.44-.97 0-1.9.53-2.54 1.45L65.75 67l1.75.98 4.97-7.27c.27-.37.58-.58.9-.58.3 0 .6.2.88.6l17.77 25.4c.3.42.28.66.27.7-.03.03-.22.18-.74.18H55.54c-.47 0-.7-.13-.73-.2s0-.3.27-.7l11.3-16.47-1.76-.98-11.18 16.3c-.66.98-.8 2-.38 2.8S54.38 89 55.54 89h36.02c1.17 0 2.08-.46 2.5-1.26.42-.8.27-1.8-.4-2.77z"/><path fill="#666" d="M54.3 60.58c-.4.6-.96 1.1-1.63 1.38l11.94 6.7L65.75 67 54.3 60.58z"/><path fill="#040430" d="M67.5 67.98L65.73 67l-1.13 1.65 1.76.98z"/><path fill="#666" d="M28.7 46.2l-1.06 1.7 4.46 2.52 1.02-1.73zM51.24 62.24c.5 0 1-.1 1.43-.3l-5.05-2.82c.27 1.77 1.78 3.13 3.62 3.13zM40.95 58.63l5.7 9.9c.15.26.22.58.2.9v15.9c0 .92-.74 1.67-1.66 1.67s-1.7-.75-1.7-1.67V69.8L37.2 58.37l-2.83-1.42L20.6 86.1c-.4.8-1.45 1.13-2.26.7-.4-.2-.7-.54-.82-.97-.13-.43-.1-.88.13-1.32l13.3-28.18.02-.06 2.87-4.86-1.74-.98-2.94 4.96-.62 1.07.1.04L15.87 83.6c-.45.87-.54 1.86-.25 2.8.3.94.95 1.7 1.82 2.17.52.26 1.1.4 1.7.4 1.37 0 2.62-.76 3.28-2l12.9-27.35.43.2 5.78 10.48v15c0 2.02 1.66 3.67 3.7 3.67 2 0 3.66-1.65 3.66-3.67V69.46c.02-.7-.15-1.36-.5-1.94l-5.13-8.95.76-1.48-1.75-1-1.3 2.53zM43.16 54.33l1.75.98 2.67-5.16v6.66l2 1.12V41.88zM31.94 37.06l-5 8.17 1.75.98 4.36-7.14h5.76l-5.7 9.63 1.74.97 7.46-12.6zM24.4 49.38c-.4.8-1.45 1.13-2.26.7-.4-.2-.7-.55-.82-.97-.14-.42-.1-.87.07-1.2l8-12.95c.43-.8 1.4-.9 1.8-.9h17.37c2.52 0 4.35 1.68 4.35 4v20.52c0 .4-.14.74-.36 1.03l1.75.98c.4-.58.62-1.27.62-2V38.05c0-3.43-2.73-6-6.35-6H31.2c-1.58 0-2.92.73-3.54 1.9l-8 12.94c-.46.88-.54 1.87-.25 2.8.3.95.95 1.7 1.82 2.16.52.27 1.1.42 1.7.42 1.37 0 2.62-.76 3.22-1.92l1.5-2.45-1.74-.96-1.5 2.44zM34.86 49.67l-1.74-.98-1.02 1.72 1.75.98zM26.94 45.23l-1.04 1.7 1.74.98 1.05-1.7zM54.3 60.58l-1.74-.98c-.3.4-.78.64-1.32.64-.92 0-1.67-.75-1.67-1.67v-.65l-2-1.12v1.77c0 .2.02.37.05.56l5.05 2.83c.67-.3 1.24-.77 1.64-1.38zM43.16 54.33l-.92 1.78 1.75 1 .9-1.8zM57.07 33.7h.1c1.7-.03 3.3-.7 4.46-1.93 1.18-1.22 1.8-2.83 1.78-4.52-.05-3.45-2.9-6.25-6.34-6.25h-.1c-3.5.06-6.3 2.96-6.25 6.47.07 3.44 2.92 6.23 6.37 6.23zm0-10.7c2.35 0 4.3 1.92 4.35 4.28.02 1.16-.42 2.26-1.23 3.1-.8.83-1.9 1.3-3.06 1.32l-.07 1v-1c-2.36 0-4.32-1.9-4.36-4.27-.03-2.4 1.9-4.4 4.36-4.43z"/></g></svg>