<svg xmlns="http://www.w3.org/2000/svg" width="110" height="110"><g><path fill="none" stroke="#007449" stroke-miterlimit="10" d="M-529.8 5266.2l49.54 49.54M-529.8 5315.74l49.54-49.54"/><path fill="#00004D" stroke="#FF9100" stroke-width="2" stroke-miterlimit="10" d="M3263.76 972.7h-4v17l4-3 4 3v-17z"/><g fill="#040430"><path d="M34.9 75h7.92v2H34.9zM34.9 43.5h19.5v2H34.9zM34.9 33h29.33v2H34.9zM34.9 64.5h19.5v2H34.9zM34.9 54h29.33v2H34.9z"/></g><path fill="#666" d="M74.06 72.2V87h-49V23h49v23.8h2V21h-53v68h53V72.2z"/><path fill="#040430" d="M85.3 48.35c-1.03-1.02-2.47-1.58-4.05-1.58-1.8 0-3.54.7-4.8 1.97l-3.6 3.6h.02L54.7 70.52l-3.62 11.72 11.67-3.1.3-.06L82.2 59.9l2.7-2.72c1.22-1.2 1.93-2.77 2.02-4.38.1-1.7-.5-3.3-1.63-4.45zM56.94 71.1l17.33-17.33 5.62 5.6-17.33 17.35-5.62-5.62zm-.93 1.9l4.62 4.6-6.58 1.76L56.02 73zM83.5 55.77l-2.2 2.2-5.6-5.62.4-.4 1.77-1.8c.88-.88 2.1-1.38 3.38-1.38 1.05 0 1.98.35 2.62 1 .74.73 1.13 1.8 1.06 2.9-.07 1.14-.58 2.24-1.44 3.1z"/></g></svg>