<svg xmlns="http://www.w3.org/2000/svg" width="110" height="110"><g><path fill="none" stroke="#007449" stroke-miterlimit="10" d="M-529.8 5899.8l49.54 49.55M-529.8 5949.35l49.54-49.54"/><path fill="#00004D" stroke="#FF9100" stroke-width="2" stroke-miterlimit="10" d="M3263.76 1606.3h-4v17l4-3 4 3v-17z"/><g fill="#666"><path d="M44.3 30.75v25.18c-1.16.42-2 1.5-2 2.82 0 1.66 1.35 3 3 3 1.66 0 3-1.34 3-3 0-1.3-.83-2.4-2-2.82V30.75h-2zM70.9 77.95c-5.86 7.77-15.15 12.8-25.6 12.8-17.64 0-32-14.36-32-32s14.36-32 32-32c10.45 0 19.74 5.03 25.6 12.8h2.45C67.4 30.88 57.52 25.1 46.3 24.78v-5.53h3.5v-2h-9v2h3.5v5.53c-18.28.53-33 15.56-33 33.97 0 18.75 15.26 34 34 34 11.64 0 21.9-5.87 28.05-14.8H70.9z"/></g><path fill="#040430" d="M82.82 74.46L64.42 58.3l18.4-15.17v8.17H98.7v14.06H82.8v9.1zm-15.3-16.1l13.3 11.68v-6.68H96.7V53.3H80.8v-5.93l-13.3 10.98z"/></g></svg>