<svg width="110" height="110" xmlns="http://www.w3.org/2000/svg" clip-rule="evenodd">
 <g>
  <title>background</title>
  <rect x="-1" y="-1" width="18.541263" height="18.541263" id="canvas_background" fill="none"/>
 </g>

 <g>
  <title>Layer 1</title>
  <g stroke="null" id="svg_1" transform="rotate(0.06671580672264099 55.10378646851394,51.6086921691888) ">
   <path stroke="null" d="m54.939472,70.070772c-8.602716,0 -15.601783,-7.607751 -15.601783,-16.958615c0,-9.346343 6.999067,-16.949573 15.601783,-16.949573c8.600636,0 15.597623,7.60323 15.597623,16.949573c0,9.350865 -6.994907,16.958615 -15.597623,16.958615zm0,-31.647341c-7.456658,0 -13.521823,6.59037 -13.521823,14.688725c0,8.105137 6.065165,14.697768 13.521823,14.697768c7.454578,0 13.517663,-6.592631 13.517663,-14.697768c0,-8.098355 -6.061005,-14.688725 -13.517663,-14.688725z" fill-rule="nonzero" fill="#666" id="svg_2"/>
   <rect stroke="null" x="23.095278" y="24.869651" width="10.399802" height="2.260847" fill="#666" id="svg_3"/>
   <path stroke="null" d="m93.583057,81.632745l-76.958536,0l0,-56.763094l2.308756,0l0,-3.285011l18.719644,0l0,3.285011l55.930136,0l0,56.763094l-0.000001,0zm-74.878575,-2.260847l72.798615,0l0,-52.241399l-55.880217,0l-0.047839,-3.285011l-14.559723,0l0,3.285011l-2.310836,0l0,52.241399l0.000001,0z" fill-rule="nonzero" fill="#666" id="svg_4"/>
  </g>
 </g>
</svg>