<svg width="110.00000000000001" height="110.00000000000001" xmlns="http://www.w3.org/2000/svg">
 <g>
  <title>background</title>
  <rect x="-1" y="-1" width="19.1875" height="19.1875" id="canvas_background" fill="none"/>
 </g>

 <g>
  <title>Layer 1</title>
  <g stroke="null" id="svg_1" transform="rotate(-0.036865171045064926 52.358135223382774,54.01548767089318) ">
   <path stroke="null" fill="#040430" d="m82.650079,66.847551l-44.052253,0c-0.466231,0 -0.877995,-0.299804 -1.030501,-0.745101l-15.427003,-45.455615l-8.710233,0c-0.601306,0 -1.089323,-0.493795 -1.089323,-1.102222s0.488017,-1.102222 1.089323,-1.102222l9.48801,0c0.464052,0 0.877995,0.299804 1.030501,0.742897l15.424825,45.457819l43.274477,0c0.601306,0 1.089323,0.493795 1.089323,1.102222s-0.48366,1.102222 -1.087145,1.102222z" id="svg_2"/>
   <path stroke="null" fill="#666666" d="m48.040084,89.588585c-4.20479,0 -7.625266,-3.460976 -7.625266,-7.715551s3.420476,-7.715551 7.625266,-7.715551s7.625266,3.460976 7.625266,7.715551s-3.422655,7.715551 -7.625266,7.715551zm0,-13.226658c-3.004355,0 -5.446619,2.471181 -5.446619,5.511108s2.442264,5.511108 5.446619,5.511108c3.002176,0 5.446619,-2.471181 5.446619,-5.511108s-2.444442,-5.511108 -5.446619,-5.511108z" id="svg_3"/>
   <path stroke="null" fill="#666666" d="m72.576013,89.588585c-4.20479,0 -7.625266,-3.460976 -7.625266,-7.715551s3.420476,-7.715551 7.625266,-7.715551s7.625266,3.460976 7.625266,7.715551s-3.420476,7.715551 -7.625266,7.715551zm0,-13.226658c-3.004355,0 -5.446619,2.471181 -5.446619,5.511108s2.442264,5.511108 5.446619,5.511108s5.446619,-2.471181 5.446619,-5.511108s-2.442264,-5.511108 -5.446619,-5.511108z" id="svg_4"/>
   <path stroke="null" fill="#040430" d="m84.403891,56.885673l-47.736346,0c-0.601306,0 -1.089323,-0.493795 -1.089323,-1.102222s0.488017,-1.102222 1.089323,-1.102222l46.864888,0l6.39433,-28.900248l-64.814765,0c-0.601306,0 -1.089323,-0.493795 -1.089323,-1.102222s0.488017,-1.102222 1.089323,-1.102222l66.172062,0c0.328976,0 0.642701,0.152107 0.851851,0.414436c0.206972,0.262329 0.285402,0.601813 0.213507,0.930275l-6.880169,31.104691c-0.113289,0.502613 -0.555555,0.859733 -1.065358,0.859733z" id="svg_5"/>
  </g>
 </g>
</svg>