<svg width="109.99999999999999" height="109.99999999999999" xmlns="http://www.w3.org/2000/svg">
 <style type="text/css">.st0{fill:#666666;} .st1{fill:#040430;}</style>

 <g>
  <title>background</title>
  <rect x="-1" y="-1" width="112" height="112" id="canvas_background" fill="none"/>
 </g>
 <g>
  <title>Layer 1</title>
  <path d="m-191.4,410.7l16.5,0l0,0.8l-16.5,0l0,-0.8z" class="st0" id="svg_1"/>
  <path d="m-203,410.7l3.1,0l0,0.8l-3.1,0l0,-0.8zm7.4,3.9c-1.9,0 -3.5,-1.6 -3.5,-3.5s1.6,-3.5 3.5,-3.5s3.5,1.6 3.5,3.5s-1.6,3.5 -3.5,3.5zm0,-6.2c-1.5,0 -2.7,1.2 -2.7,2.7s1.2,2.7 2.7,2.7c1.5,0 2.7,-1.2 2.7,-2.7s-1.2,-2.7 -2.7,-2.7z" class="st1" id="svg_2"/>
  <path d="m-177.9,421.8l3.1,0l0,0.8l-3.1,0l0,-0.8z" class="st0" id="svg_3"/>
  <path d="m-203,421.8l16.4,0l0,0.8l-16.4,0l0,-0.8zm20.7,3.9c-1.9,0 -3.5,-1.6 -3.5,-3.5s1.6,-3.5 3.5,-3.5s3.5,1.6 3.5,3.5s-1.6,3.5 -3.5,3.5zm0,-6.3c-1.5,0 -2.7,1.2 -2.7,2.7c0,1.5 1.2,2.7 2.7,2.7c1.5,0 2.7,-1.2 2.7,-2.7c0,-1.4 -1.2,-2.7 -2.7,-2.7z" class="st1" id="svg_4"/>
  <path d="m-186.6,432.8l11.7,0l0,0.8l-11.7,0l0,-0.8z" class="st0" id="svg_5"/>
  <path d="m-203,432.8l7.9,0l0,0.8l-7.9,0l0,-0.8zm12.2,3.9c-1.9,0 -3.5,-1.6 -3.5,-3.5s1.6,-3.5 3.5,-3.5s3.5,1.6 3.5,3.5s-1.6,3.5 -3.5,3.5zm0,-6.2c-1.5,0 -2.7,1.2 -2.7,2.7c0,1.5 1.2,2.7 2.7,2.7s2.7,-1.2 2.7,-2.7c0,-1.5 -1.2,-2.7 -2.7,-2.7z" class="st1" id="svg_6"/>
  <style type="text/css">.st0{fill:#666666;} .st1{fill:#040430;}</style>
  <g stroke="null" id="svg_16" transform="rotate(0.6896418929100037 53.79084777831991,52.12123870849588) ">
   <path stroke="null" d="m46.842707,24.320311l45.857691,0l0,1.94242l-45.857691,0l0,-1.94242z" class="st0" id="svg_10"/>
   <path stroke="null" d="m14.603365,24.320311l8.615687,0l0,1.94242l-8.615687,0l0,-1.94242zm20.566482,9.469312c-5.280588,0 -9.72739,-3.884848 -9.72739,-8.498107s4.446802,-8.498098 9.72739,-8.498098s9.72738,3.884848 9.72738,8.498098s-4.446802,8.498107 -9.72738,8.498107zm0,-15.053777c-4.168885,0 -7.503984,2.913634 -7.503984,6.555669s3.335099,6.555679 7.503984,6.555679c4.168876,0 7.503984,-2.913634 7.503984,-6.555679s-3.335108,-6.555669 -7.503984,-6.555669z" class="st1" id="svg_11"/>
   <path stroke="null" d="m84.362637,51.271427l8.615687,0l0,1.942429l-8.615687,0l0,-1.942429z" class="st0" id="svg_12"/>
   <path stroke="null" d="m14.603365,51.271427l45.579765,0l0,1.942429l-45.579765,0l0,-1.942429zm57.530551,9.469312c-5.280579,0 -9.72739,-3.884848 -9.72739,-8.498098s4.446811,-8.498098 9.72739,-8.498098s9.72739,3.884839 9.72739,8.498098s-4.446811,8.498098 -9.72739,8.498098zm0,-15.29658c-4.168876,0 -7.503984,2.913634 -7.503984,6.555679c0,3.642045 3.335108,6.555679 7.503984,6.555679c4.168885,0 7.503984,-2.913634 7.503984,-6.555679c0,-3.399241 -3.335099,-6.555679 -7.503984,-6.555679z" class="st1" id="svg_13"/>
   <path stroke="null" d="m60.18313,77.979749l32.517268,0l0,1.94242l-32.517268,0l0,-1.94242z" class="st0" id="svg_14"/>
   <path stroke="null" d="m14.603365,77.979749l21.95611,0l0,1.94242l-21.95611,0l0,-1.94242zm33.906896,9.469312c-5.280579,0 -9.72739,-3.884848 -9.72739,-8.498107s4.446811,-8.498098 9.72739,-8.498098s9.72739,3.884848 9.72739,8.498098s-4.446811,8.498107 -9.72739,8.498107zm0,-15.053786c-4.168876,0 -7.503984,2.913643 -7.503984,6.555679c0,3.642045 3.335108,6.555679 7.503984,6.555679s7.503984,-2.913634 7.503984,-6.555679c0,-3.642036 -3.335099,-6.555679 -7.503984,-6.555679z" class="st1" id="svg_15"/>
  </g>
 </g>
</svg>